<?xml version="1.0" encoding="UTF-8"?>
<!DOCTYPE svg PUBLIC "-//W3C//DTD SVG 1.1//EN" "http://www.w3.org/Graphics/SVG/1.1/DTD/svg11.dtd">
<!-- Creator: CorelDRAW X7 -->
<svg xmlns="http://www.w3.org/2000/svg" xml:space="preserve" width="46.6278mm" height="50.2108mm" version="1.1" style="shape-rendering:geometricPrecision; text-rendering:geometricPrecision; image-rendering:optimizeQuality; fill-rule:evenodd; clip-rule:evenodd"
viewBox="0 0 2814 3030"
 xmlns:xlink="http://www.w3.org/1999/xlink">
 <defs>
  <style type="text/css">
   <![CDATA[
    .str3 {stroke:#619E9D;stroke-width:41.9408}
    .str2 {stroke:#619E9D;stroke-width:41.9408}
    .str5 {stroke:#619E9D;stroke-width:27.9646;stroke-linecap:round;stroke-linejoin:round}
    .str4 {stroke:#368483;stroke-width:41.9408;stroke-linecap:round;stroke-linejoin:round}
    .str0 {stroke:#619E9D;stroke-width:41.9468;stroke-linecap:round;stroke-linejoin:round}
    .str1 {stroke:#619E9D;stroke-width:41.9468;stroke-linecap:round;stroke-linejoin:round}
    .fil0 {fill:none}
    .fil2 {fill:#368483}
    .fil5 {fill:#619E9D}
    .fil4 {fill:#619E9D}
    .fil1 {fill:#CEE1E0}
    .fil3 {fill:#619E9D;fill-rule:nonzero}
   ]]>
  </style>
 </defs>
 <g id="Layer_x0020_1">
  <metadata id="CorelCorpID_0Corel-Layer"/>
  <g id="_411066320">
   <path class="fil0 str0" d="M727 576l845 0c155,0 282,127 282,283l0 915c-164,-61 -353,4 -444,161 -80,138 -60,307 39,422l-722 0c-156,0 -283,-127 -283,-283l0 -1215 0 -164c0,-65 -53,-119 -118,-119l401 0z"/>
   <path class="fil1 str1" d="M326 576l0 0c65,0 118,54 118,119l0 194 -237 0 0 -194c0,-65 54,-119 119,-119z"/>
   <path class="fil2" d="M2121 699l0 0c24,0 43,20 43,43l0 12 12 0c23,0 43,19 43,43l0 0c0,24 -20,43 -43,43l-12 0 0 12c0,24 -19,43 -43,43l0 0c-24,0 -43,-19 -43,-43l0 -12 -12 0c-24,0 -43,-19 -43,-43l0 0c0,-24 19,-43 43,-43l12 0 0 -12c0,-23 19,-43 43,-43z"/>
   <path class="fil2" d="M227 1330l0 0c11,0 21,9 21,21l0 5 5 0c12,0 21,10 21,21l0 0c0,12 -9,21 -21,21l-5 0 0 5c0,12 -10,21 -21,21l0 0c-12,0 -21,-9 -21,-21l0 -5 -5 0c-12,0 -21,-9 -21,-21l0 0c0,-11 9,-21 21,-21l5 0 0 -5c0,-12 9,-21 21,-21z"/>
   <path class="fil1" d="M1968 1703c-230,-133 -523,-54 -656,175 -132,230 -54,523 176,656 218,126 493,61 634,-142 7,-11 15,-22 21,-34 7,-11 13,-23 19,-35 105,-224 23,-494 -194,-620zm-558 232c101,-176 326,-236 501,-135 176,102 236,326 135,502 -102,176 -326,236 -502,134 -175,-101 -236,-326 -134,-501z"/>
   <g>
    <g>
     <path class="fil1" d="M2625 2636l0 0c19,-34 7,-77 -26,-97l-307 -177 -71 123 307 177c34,20 77,8 97,-26z"/>
     <path id="1" class="fil3" d="M2604 2636l3 -10 39 10 0 0 -42 0 0 0zm5 -115l0 0 4 3 4 2 4 3 3 3 4 3 3 3 3 4 2 3 3 4 2 4 3 4 2 3 2 4 1 5 2 4 1 4 1 4 1 5 0 4 1 4 0 5 0 4 0 5 -1 4 0 5 -1 4 -1 4 -2 5 -1 4 -2 4 -2 5 -2 4 -36 -21 1 -2 1 -3 1 -2 1 -2 0 -3 1 -2 0 -2 1 -3 0 -2 0 -3 0 -2 0 -3 0 -2 -1 -2 0 -3 -1 -2 0 -2 -1 -3 -1 -2 -1 -2 -1 -2 -1 -2 -2 -2 -1 -2 -1 -2 -2 -2 -2 -2 -2 -2 -1 -1 -2 -2 -3 -1 -2 -1 0 0 21 -37zm-328 -141l-7 -28 28 -8 307 177 -21 37 -307 -178zm-7 -28l10 -18 18 10 -28 8zm-35 143l-29 8 -7 -28 71 -123 36 21 -71 122zm-29 8l-18 -10 11 -18 7 28zm328 141l-21 36 -307 -177 21 -36 307 177zm108 -8l-3 11 -3 4 -2 4 -3 3 -3 4 -3 3 -4 3 -3 3 -3 3 -4 3 -4 2 -4 2 -4 2 -4 2 -4 2 -4 1 -4 1 -4 1 -5 1 -4 1 -4 0 -5 1 -4 0 -5 -1 -4 0 -5 -1 -4 -1 -4 -1 -5 -1 -4 -2 -4 -1 -5 -2 -4 -3 21 -36 3 1 2 1 2 1 3 1 2 1 2 0 3 1 2 0 2 1 3 0 2 0 3 0 2 -1 3 0 2 0 2 -1 3 -1 2 -1 2 0 2 -1 2 -2 3 -1 2 -1 2 -1 1 -2 2 -2 2 -1 2 -2 1 -2 2 -2 1 -2 2 -2 -3 10 42 0z"/>
    </g>
    <polygon class="fil1 str2" points="2348,2395 2292,2362 2221,2485 2278,2518 "/>
   </g>
   <g>
    <path class="fil3" d="M2266 2407l-115 -66 21 -36 115 66 7 28 -28 8zm21 -36l18 10 -11 18 -7 -28zm-69 77l40 -69 36 20 -40 70 -28 7 -8 -28zm36 21l-10 18 -18 -11 28 -7zm-122 -95l115 66 -21 36 -115 -66 -5 -31 26 -5zm-21 36l-21 -12 16 -19 5 31zm16 -61l36 21 0 0 -1 1 0 1 -1 1 -1 2 0 1 -1 1 -1 1 -1 1 0 1 -1 2 -1 1 -1 1 -1 1 0 1 -1 1 -1 1 -1 1 0 2 -1 1 -1 1 -1 1 -1 1 -1 1 0 1 -1 1 -1 1 -1 1 -1 1 -1 1 -1 2 0 1 -1 1 -32 -27 1 -1 0 -1 1 -1 1 -1 1 -1 0 -1 1 -1 1 0 0 -1 1 -1 1 -1 0 -1 1 -1 1 -1 0 -1 1 -1 1 -1 0 -1 1 -1 1 -1 0 0 1 -1 1 -1 0 -1 1 -1 0 -1 1 -1 1 -1 0 -1 1 -1 0 -1 1 -1 0 0zm45 -44l-21 36 30 -11 0 1 0 1 -1 2 0 1 -1 1 0 1 -1 2 0 1 -1 1 0 2 -1 1 -1 1 0 1 -1 2 0 1 -1 1 0 1 -1 2 -1 1 0 1 -1 1 0 2 -1 1 -1 1 0 1 -1 1 -1 2 0 1 -1 1 -1 1 0 2 -1 1 -36 -21 0 -1 1 -1 1 -1 0 -1 1 -1 0 -1 1 -1 0 -1 1 -1 0 -1 1 -1 0 -1 1 -1 0 -1 1 -1 0 -1 1 -1 0 -1 1 -1 0 -1 1 -1 0 -1 0 -1 1 -2 0 -1 1 -1 0 -1 1 -1 0 -1 0 -1 1 -1 0 -1 30 -11zm-30 11l9 -24 21 13 -30 11z"/>
   </g>
   <path class="fil0 str3" d="M1312 1878c133,-229 426,-308 656,-175 229,132 308,426 175,655 -132,230 -426,308 -655,176 -230,-133 -308,-426 -176,-656zm98 57c101,-176 326,-236 501,-135 176,102 236,326 135,502 -102,176 -326,236 -502,134 -175,-101 -236,-326 -134,-501z"/>
   <g>
    <circle class="fil4" cx="845" cy="1300" r="71"/>
    <circle class="fil4" cx="1454" cy="1300" r="71"/>
   </g>
   <g>
    <rect class="fil4" transform="matrix(0.411954 -0.110383 0.110383 0.411954 668.69 1057.87)" width="588" height="134" rx="67" ry="67"/>
    <rect class="fil4" transform="matrix(-0.411954 -0.110383 -0.110383 0.411954 1630.05 1057.87)" width="588" height="134" rx="67" ry="67"/>
   </g>
   <path class="fil2" d="M999 285l0 0c15,0 27,12 27,26l0 8 7 0c15,0 27,12 27,26l0 0c0,15 -12,27 -27,27l-7 0 0 7c0,15 -12,27 -27,27l0 0c-14,0 -26,-12 -26,-27l0 -7 -8 0c-14,0 -26,-12 -26,-27l0 0c0,-14 12,-26 26,-26l8 0 0 -8c0,-14 12,-26 26,-26z"/>
   <path class="fil2" d="M1178 2489l0 0c15,0 26,12 26,26l0 7 7 0c15,0 26,12 26,26l0 0c0,15 -11,26 -26,26l-7 0 0 7c0,15 -11,26 -26,26l0 0c-14,0 -26,-11 -26,-26l0 -7 -7 0c-14,0 -26,-11 -26,-26l0 0c0,-14 12,-26 26,-26l7 0 0 -7c0,-14 12,-26 26,-26z"/>
   <path class="fil2" d="M2208 1388l0 0c12,0 21,10 21,21l0 6 5 0c12,0 21,9 21,21l0 0c0,11 -9,20 -21,20l-5 0 0 6c0,11 -9,21 -21,21l0 0c-11,0 -21,-10 -21,-21l0 -6 -5 0c-12,0 -21,-9 -21,-20l0 0c0,-12 9,-21 21,-21l5 0 0 -6c0,-11 10,-21 21,-21z"/>
   <path class="fil2" d="M321 1484l0 0c16,0 29,13 29,29l0 7 7 0c16,0 29,13 29,29l0 0c0,16 -13,29 -29,29l-7 0 0 7c0,16 -13,29 -29,29l0 0c-16,0 -29,-13 -29,-29l0 -7 -7 0c-16,0 -29,-13 -29,-29l0 0c0,-16 13,-29 29,-29l7 0 0 -7c0,-16 13,-29 29,-29z"/>
   <path class="fil2" d="M1353 237l0 0c11,0 20,10 20,21l0 6 6 0c11,0 21,9 21,20l0 0c0,12 -10,21 -21,21l-6 0 0 6c0,11 -9,20 -20,20l0 0c-12,0 -21,-9 -21,-20l0 -6 -6 0c-11,0 -21,-9 -21,-21l0 0c0,-11 10,-20 21,-20l6 0 0 -6c0,-11 9,-21 21,-21z"/>
   <path class="fil0 str4" d="M1065 1741c0,-47 38,-84 84,-84 47,0 84,37 84,84"/>
   <path class="fil0 str5" d="M464 14c-133,29 -375,320 -53,209 45,-16 237,-162 41,-71 -42,20 -162,123 -114,169 69,65 340,-148 146,-73 -100,39 -164,288 28,180 167,-95 -127,-33 -107,59"/>
   <ellipse class="fil1" cx="1407" cy="2937" rx="1407" ry="93"/>
   <path class="fil5" d="M1689 2321l0 -77 80 0 0 77 -80 0zm2 -114c0,-23 2,-42 6,-56 3,-14 10,-27 20,-39 6,-7 13,-13 20,-18 8,-6 15,-11 21,-17 6,-5 12,-12 16,-19 4,-7 7,-16 7,-28 0,-19 -6,-33 -16,-40 -11,-8 -24,-12 -38,-12 -21,0 -35,6 -43,18 -8,11 -13,27 -15,47l-76 0c0,-20 3,-37 9,-53 6,-16 15,-29 27,-40 12,-11 26,-20 42,-26 16,-5 34,-8 54,-8 43,0 76,8 101,26 25,17 37,45 37,84 0,13 -1,24 -4,33 -3,10 -6,18 -12,26 -5,8 -11,15 -18,22 -8,6 -16,13 -26,20 -9,7 -16,13 -21,19 -5,6 -9,12 -12,18 -3,6 -5,13 -5,20 -1,7 -2,14 -2,23l-72 0z"/>
  </g>
 </g>
</svg>
